<svg xmlns="http://www.w3.org/2000/svg"
 xmlns:xlink="http://www.w3.org/1999/xlink"
 width="23px" height="23px"  viewBox="0 0 23 23">
<path fill-rule="evenodd"  fill="#ffffff"
 d="M14.335876,19.75415 C13.307007,20.204956 12.187012,20.46466 11.001953,20.46466 C8.931213,20.46466 7.0427856,19.685791 5.5581055,18.4151 C5.5581055,18.4151 5.675415,18.496948 5.75354,18.565308 C7.394409,14.821472 12.46051,12.963013 12.46051,12.963013 C12.473572,12.963013 12.499573,12.94928 12.512634,12.94928 C13.710754,16.22882 14.205688,18.961548 14.335876,19.75415 ZM11.926514,11.460083 C11.822388,11.500977 11.705139,11.528381 11.587952,11.569336 C11.587952,11.569336 6.977722,13.126953 4.6465454,17.485779 C4.6465454,17.485779 4.6465454,17.485779 4.6465454,17.485779 C3.2921143,15.900757 2.4586182,13.79657 2.4586182,11.500977 C2.4586182,11.4053955 2.4586182,11.309631 2.4716797,11.21405 C2.6148682,11.21405 6.8344727,11.323364 11.236328,9.94342 C11.483765,10.448853 11.71814,10.954346 11.926514,11.460083 ZM10.533081,8.563232 C6.430664,9.697388 2.8623657,9.65625 2.6409302,9.65625 C3.2009277,6.8826294 4.972107,4.5733643 7.3553467,3.3982544 C7.472534,3.5621948 9.048401,5.8031006 10.533081,8.563232 ZM19.44104,12.922058 C19.050293,15.422485 17.695862,17.581543 15.781433,18.934326 C15.690247,18.401428 15.234497,15.764282 14.114502,12.525879 C16.875427,12.074829 19.258667,12.867432 19.44104,12.922058 ZM8.957275,2.796997 C8.944214,2.796997 8.931213,2.810669 8.931213,2.810669 C8.944214,2.796997 8.944214,2.796997 8.957275,2.796997 ZM16.640991,4.7781982 C16.61493,4.819336 15.403809,6.7596436 12.187012,8.016602 C10.728394,5.2018433 9.113525,2.9746094 8.983276,2.796997 C9.634399,2.6330566 10.311707,2.5372925 11.001953,2.5372925 C13.163818,2.5372925 15.143311,3.3845215 16.640991,4.7781982 ZM19.545166,11.4053955 C19.44104,11.391724 16.536804,10.722107 13.593567,11.118469 C13.528381,10.968079 13.476379,10.804138 13.411194,10.653748 C13.228882,10.216614 13.033569,9.779236 12.838135,9.355835 C16.211182,7.9072876 17.578674,5.8303223 17.604736,5.8031006 C18.802856,7.333496 19.519165,9.287476 19.545166,11.4053955 ZM21.003845,11.500977 C21.003845,5.7075195 16.523804,1.006897 11.001953,1.006897 C5.4799805,1.006897 1.0,5.7075195 1.0,11.500977 C1.0,17.294678 5.4799805,21.995056 11.001953,21.995056 C16.523804,21.995056 21.003845,17.294678 21.003845,11.500977 Z"/>
</svg>