<svg xmlns="http://www.w3.org/2000/svg"
 xmlns:xlink="http://www.w3.org/1999/xlink"
 width="26px" height="22px"  viewBox="0 0 26 22">
<path fill-rule="evenodd"  fill="#ffffff"
 d="M19.69104,1.0066528 C19.69104,1.0066528 5.3133545,1.0066528 5.3133545,1.0066528 C2.9320068,1.0066528 1.0,2.6853638 1.0,4.7543945 C1.0,4.7543945 1.0,17.247314 1.0,17.247314 C1.0,19.31659 2.9320068,20.99524 5.3133545,20.99524 C5.3133545,20.99524 19.69104,20.99524 19.69104,20.99524 C22.072388,20.99524 24.004395,19.31659 24.004395,17.247314 C24.004395,17.247314 24.004395,4.7543945 24.004395,4.7543945 C24.004395,2.6853638 22.072388,1.0066528 19.69104,1.0066528 ZM11.453796,11.0008545 C11.453796,12.523499 10.031006,13.759705 8.278748,13.759705 C6.526428,13.759705 5.1036377,12.523499 5.1036377,11.0008545 C5.1036377,9.478394 6.526428,8.242004 8.278748,8.242004 C10.031006,8.242004 11.453796,9.478394 11.453796,11.0008545 ZM19.900757,11.0008545 C19.900757,12.523499 18.477966,13.759705 16.725647,13.759705 C14.973389,13.759705 13.550598,12.523499 13.550598,11.0008545 C13.550598,9.478394 14.973389,8.242004 16.725647,8.242004 C18.477966,8.242004 19.900757,9.478394 19.900757,11.0008545 Z"/>
</svg>