<svg xmlns="http://www.w3.org/2000/svg"
 xmlns:xlink="http://www.w3.org/1999/xlink"
 width="27px" height="22px"  viewBox="0 0 27 22">
<path fill-rule="evenodd"  fill="#ffffff"
 d="M25.003967,3.3770142 C24.157227,3.7676392 23.237427,4.048828 22.288452,4.158081 C23.266602,3.5332642 24.01117,2.5490723 24.361572,1.3771973 C23.45642,1.9553223 22.434387,2.3771973 21.368652,2.5957642 C20.507324,1.6115723 19.280945,1.0021973 17.923157,1.0021973 C15.309814,1.0021973 13.20752,3.2677612 13.20752,6.048645 C13.20752,6.439087 13.251282,6.829712 13.32428,7.204712 C9.41156,6.985901 5.922241,4.986267 3.6009521,1.9240112 C3.1921387,2.6740112 2.9585571,3.5332642 2.9585571,4.470703 C2.9585571,6.22052 3.7907715,7.767151 5.060913,8.67334 C4.2871094,8.64209 3.557129,8.407654 2.9293213,8.032654 C2.9293213,8.04834 2.9293213,8.07959 2.9293213,8.095215 C2.9293213,10.548096 4.5498657,12.579041 6.7106934,13.047852 C6.3164673,13.157166 5.8930664,13.219727 5.4696655,13.219727 C5.163086,13.219727 4.8710938,13.188416 4.5791016,13.1414795 C5.1777344,15.141357 6.915039,16.594177 8.98822,16.641113 C7.367676,18.000244 5.338318,18.79718 3.133728,18.79718 C2.739563,18.79718 2.3745728,18.781555 1.9949341,18.73462 C4.0827637,20.171997 6.564636,20.999939 9.236389,20.999939 C17.90857,20.999939 22.653442,13.3133545 22.653442,6.642212 C22.653442,6.423462 22.653442,6.204895 22.638794,5.986084 C23.558594,5.267395 24.361572,4.376831 25.003967,3.3770142 Z"/>
</svg>